<svg version="1.2" xmlns="http://www.w3.org/2000/svg" viewBox="0 0 64 64" width="50" height="50">
	<title>ball</title>
	<style>
		.s0 { fill: #fefefe } 
		.s1 { fill: #fbae3a } 
		.s2 { fill: #2e2e30 } 
		.s3 { fill: #d73838 } 
		.s4 { fill: #f69033 } 
		.s5 { fill: #5db8e8 } 
		.s6 { opacity: .3;fill: #010201 } 
	</style>
	<g>
		<path fill-rule="evenodd" class="s0" d="m42.6 3.5c15.6 6.1 23.3 23.7 17.3 39.5-6 15.7-23.6 23.5-39.2 17.4-15.6-6.1-23.3-23.8-17.3-39.5 6.1-15.7 23.6-23.5 39.2-17.4z"/>
		<path fill-rule="evenodd" class="s1" d="m42.1 20.5c0 3-2.5 5.4-5.5 5.4-3 0-5.5-2.4-5.5-5.4 0-3 2.5-5.5 5.5-5.5 3 0 5.5 2.5 5.5 5.5z"/>
		<path fill-rule="evenodd" class="s2" d="m36.6 27.3c-3.8 0-6.9-3.1-6.9-6.8 0-3.8 3.1-6.9 6.9-6.9 3.8 0 6.9 3.1 6.9 6.9 0 3.7-3.1 6.8-6.9 6.8zm0-10.9c-2.3 0-4.1 1.8-4.1 4.1 0 2.2 1.8 4 4.1 4 2.3 0 4.1-1.8 4.1-4 0-2.3-1.8-4.1-4.1-4.1z"/>
		<path fill-rule="evenodd" class="s3" d="m31.4 22.1l-1.3-0.9c-11.4 4.5-20.4 14-24.6 26 3.3 5.8 8.5 10.6 15.2 13.2q0.9 0.4 1.8 0.7 1 0.3 1.9 0.5 0.9 0.2 1.9 0.4 0.9 0.2 1.9 0.3l0.1-0.1c5.9-9.6 9.4-21.9 9.4-35.3l-1.3-1q-0.9 0-1.7-0.3-0.8-0.3-1.4-0.8-0.7-0.5-1.2-1.2-0.5-0.7-0.7-1.5z"/>
		<path fill-rule="evenodd" class="s2" d="m28.2 63.7q-0.1 0-0.2 0-1-0.1-2-0.3-1-0.2-1.9-0.5-1-0.2-2-0.5-0.9-0.3-1.9-0.7c-6.7-2.6-12.4-7.5-15.9-13.8q-0.1-0.1-0.2-0.3 0-0.1 0-0.3 0-0.1 0-0.3 0-0.1 0-0.3c4.4-12.3 13.7-22.1 25.5-26.8q0.2-0.1 0.4-0.1 0.1 0 0.3 0 0.2 0 0.4 0.1 0.1 0.1 0.3 0.2l1.2 0.9q0.3 0.3 0.5 0.7c0.5 1.6 2 2.7 3.7 2.8q0.4 0 0.8 0.3l1.3 1c0.4 0.2 0.6 0.6 0.6 1.1 0 13.1-3.4 25.9-9.6 36.1q-0.1 0.1-0.2 0.2-0.1 0.1-0.1 0.1-0.1 0.1-0.2 0.2-0.1 0-0.3 0.1h-0.1q0 0-0.1 0 0 0.1-0.1 0.1-0.1 0-0.1 0-0.1 0-0.1 0zm-21.2-16.6c3.3 5.5 8.2 9.7 14.2 12q0.8 0.3 1.6 0.6 0.8 0.2 1.5 0.4 0.8 0.2 1.6 0.4 0.8 0.2 1.6 0.3c5.6-9.4 8.7-21.2 8.8-33.2l-0.5-0.3c-2.5-0.3-4.7-2-5.6-4.3l-0.3-0.2c-10.5 4.4-18.8 13.2-22.9 24.3z"/>
		<path fill-rule="evenodd" class="s4" d="m32 17.5q0.4-0.6 0.9-1 0.5-0.5 1.1-0.8 0.6-0.3 1.3-0.5 0.6-0.2 1.3-0.2l0.2-0.1c0-4.7-1.8-10-6.6-13.5q-3.5 0.2-6.8 1.2-3.4 0.9-6.4 2.6-3 1.7-5.6 4.1-2.6 2.3-4.5 5.1 1-0.2 2.1-0.4 1.1-0.1 2.1-0.2 1.1-0.1 2.2-0.2 1.1-0.1 2.1-0.1 2.1 0 4.1 0.2 1.9 0.2 3.9 0.6 2 0.4 3.9 1 1.9 0.5 3.8 1.3z"/>
		<path fill-rule="evenodd" class="s2" d="m32 18.9c-0.4 0-0.7-0.2-1-0.4l-0.7-0.7q-1.7-0.7-3.6-1.3-1.8-0.5-3.7-0.8-1.9-0.4-3.7-0.6-1.9-0.2-3.9-0.2c-2.7 0-5.5 0.3-8.3 0.9q-0.2 0-0.4 0-0.2 0-0.4-0.1-0.2-0.1-0.3-0.2-0.2-0.1-0.3-0.3-0.1-0.2-0.2-0.4 0-0.2 0-0.4 0-0.2 0-0.4 0.1-0.2 0.2-0.4c5.6-8 14.7-13.1 24.4-13.6q0.5 0 0.9 0.3c4.5 3.3 7.2 8.6 7.2 14.6 0 0.5-0.3 1-0.7 1.2l-0.2 0.1q-0.1 0.1-0.2 0.1 0 0.1-0.1 0.1-0.1 0-0.2 0-0.1 0-0.2 0-0.5 0-1 0.2-0.5 0.1-1 0.3-0.4 0.3-0.8 0.6-0.4 0.3-0.6 0.8-0.1 0.1-0.3 0.2-0.1 0.1-0.2 0.2-0.2 0.1-0.4 0.1-0.1 0.1-0.3 0.1zm-16.6-6.8c5.6 0 11.1 1.1 16.2 3.2q0.2 0 0.3 0.1 0.4-0.3 0.8-0.6 0.4-0.2 0.8-0.5 0.5-0.2 0.9-0.3 0.5-0.2 1-0.3c-0.3-2.7-1.3-7.4-5.7-10.8-7.5 0.5-14.5 4-19.5 9.6q2.6-0.4 5.3-0.4z"/>
		<path fill-rule="evenodd" class="s5" d="m59.6 20.1l-0.8-1c-4.5-1.7-12.1-2.2-16.4-0.7l-0.7 0.2q0.4 0.9 0.4 1.9 0 0.3-0.1 0.6 0 0.3-0.1 0.7-0.1 0.3-0.2 0.6-0.1 0.3-0.2 0.6l0.9 0.3c7.4 6.2 12.8 14.9 14.9 24.9q0.4-0.6 0.7-1.3 0.4-0.6 0.7-1.3 0.3-0.6 0.6-1.3 0.3-0.7 0.6-1.3c2.9-7.7 2.6-15.9-0.3-22.9z"/>
		<path fill-rule="evenodd" class="s2" d="m57.3 49.6q-0.2 0-0.5-0.1-0.2-0.1-0.4-0.2-0.2-0.2-0.3-0.4-0.1-0.2-0.2-0.4c-1.9-9.4-7-17.9-14.2-24l-0.7-0.2q-0.1 0-0.3-0.1-0.1-0.1-0.2-0.2-0.1-0.1-0.2-0.2-0.1-0.2-0.1-0.3-0.1-0.2-0.1-0.3 0-0.2 0-0.3 0-0.2 0-0.3 0.1-0.1 0.1-0.3 0.2-0.4 0.3-0.8 0.2-0.4 0.2-0.8 0-0.4-0.1-0.8 0-0.4-0.2-0.8c-0.1-0.4-0.1-0.8 0.1-1.2 0.2-0.3 0.5-0.6 0.9-0.7l0.6-0.1c4.5-1.6 12.2-1.2 17.3 0.7q0.4 0.2 0.6 0.5l0.8 0.9q0.1 0.2 0.1 0.4 1.2 2.8 1.9 5.8 0.6 3 0.6 6.1 0.1 3.1-0.5 6.1-0.5 3-1.6 5.9-0.3 0.7-0.6 1.4-0.3 0.7-0.6 1.4-0.4 0.7-0.8 1.3-0.3 0.7-0.7 1.3-0.1 0.2-0.3 0.3-0.1 0.1-0.2 0.2-0.2 0.1-0.4 0.2-0.1 0-0.3 0zm-14.1-27.4q0 0 0 0 0 0 0 0 0 0 0.1 0 0 0 0 0c6.9 5.8 11.9 13.5 14.5 22.2q1.3-2.8 2-5.7 0.7-3 0.8-6 0-3.1-0.5-6.1-0.6-3-1.8-5.8l-0.3-0.5c-4.3-1.5-10.7-1.8-14.6-0.7q0.1 0.3 0.1 0.6 0 0.4 0 0.7-0.1 0.3-0.1 0.7-0.1 0.3-0.2 0.6z"/>
		<path fill-rule="evenodd" class="s6" d="m17.4 48.7q-2.2-0.9-4.3-2-2.1-1.1-4.1-2.5-1.9-1.4-3.7-3-1.8-1.6-3.3-3.4c1.9 9.9 8.7 18.7 18.7 22.6 15.6 6.1 33.2-1.7 39.2-17.4q0.2-0.7 0.5-1.3 0.2-0.6 0.4-1.3 0.1-0.6 0.3-1.3 0.2-0.7 0.3-1.3c-10.6 12.2-28.1 17.1-44 10.9z"/>
		<path fill-rule="evenodd" class="s2" d="m31.6 63.9c-3.8 0-7.6-0.7-11.4-2.2-16.2-6.3-24.4-24.9-18.1-41.3 6.3-16.4 24.7-24.6 41-18.2 16.3 6.3 24.4 24.8 18.1 41.3-4.9 12.6-16.9 20.4-29.6 20.4zm0.1-61.1c-11.6 0-22.5 7.1-27 18.6-5.7 15 1.7 31.9 16.5 37.7 7.2 2.8 15.1 2.6 22.1-0.5 7.1-3.2 12.5-8.9 15.3-16.1 5.8-15-1.7-31.9-16.5-37.7q-1.2-0.5-2.5-0.9-1.3-0.3-2.6-0.6-1.3-0.2-2.6-0.4-1.4-0.1-2.7-0.1z"/>
	</g>
</svg>