<svg version="1.2" xmlns="http://www.w3.org/2000/svg" viewBox="0 0 596 597" width="40" height="40">
	<title>peg</title>
	<style>
		.s0 { fill: #ffffff } 
		.s1 { fill: #dfdfdf } 
		.s2 { fill: #ff1c1c } 
		.s3 { fill: #df1818 } 
		.s4 { fill: #000000 } 
	</style>
	<g id="Pokéball_1_">
		<g id="Colours">
			<path id="Down" class="s0" d="m297.6 395.5c-47 0-86.2-33.3-95.6-77.4h-156.4c11.1 128.3 119 229 250.4 229 131.4 0 239.4-100.7 250.3-229h-153.2c-9.3 44.2-48.5 77.4-95.5 77.4z"/>
			<path id="Shadow_Down" class="s1" d="m353.5 540.6c104.2-24.4 183.5-113.4 192.8-222.5h-61.7c-6.1 99-58.2 182.8-131.1 222.5z"/>
			<path id="Center" class="s0" d="m355.2 298q-0.2 0 0 0c-0.1-7.1-1.4-13.8-3.7-20.1-8.2-21.8-29.2-37.3-53.9-37.3-24.7 0-45.7 15.6-53.9 37.3-2.3 6.3-3.6 13-3.6 20.1h0.1c0 7.1 1.3 13.8 3.6 20.1 8.2 21.8 29.2 37.3 53.9 37.3 24.7 0 45.7-15.6 53.9-37.3 2.3-6.2 3.6-13 3.6-20.1z"/>
			<path id="Up" class="s2" d="m297.7 200.7c47 0 86.2 33.2 95.6 77.3h156.4c-11.1-128.4-119-229.1-250.5-229.1-131.5 0-239.3 100.7-250.3 229h153.3c9.3-44.1 48.5-77.2 95.5-77.2z"/>
			<path id="Shadow_Up" class="s3" d="m484.6 277.9h65c-9.6-110.9-91.5-201.3-198.5-223.7 74.3 39.1 127.2 123.8 133.5 223.7z"/>
		</g>
		<path id="Line" class="s4" d="m297.6 1c-164.3 0-297.6 133-297.6 297 0 164 133.3 297 297.6 297 164.3 0 297.7-132.9 297.7-297 0-164.1-133.3-297-297.7-297zm53.9 276.9c2.3 6.3 3.6 13 3.6 20.1h0.1c0 7.1-1.3 13.8-3.6 20.1-8.2 21.8-29.2 37.3-53.9 37.3-24.7 0-45.7-15.6-53.9-37.3-2.3-6.3-3.6-13-3.6-20.1h-0.1c0-7.1 1.3-13.8 3.6-20.1 8.2-21.8 29.2-37.3 53.9-37.3 24.7 0 45.7 15.6 53.9 37.3zm-55.5 269.4c-131.6 0-239.4-100.7-250.4-229.1h156.4c9.4 44.1 48.6 77.4 95.6 77.4 47 0 86.2-33.3 95.5-77.4h153.3c-11 128.2-118.9 229.1-250.4 229.1zm3.2-498.4c131.5 0 239.4 100.7 250.4 229h-156.5c-9.3-44.1-48.5-77.4-95.5-77.4-47 0-86.2 33.3-95.6 77.4h-153.1c11-128.3 118.9-229 250.3-229z"/>
	</g>
</svg>